<mxfile host="app.diagrams.net" modified="2023-05-08T08:06:53.378Z" agent="Mozilla/5.0 (Macintosh; Intel Mac OS X 10_15_7) AppleWebKit/537.36 (KHTML, like Gecko) Chrome/112.0.0.0 Safari/537.36" etag="EBbFSKy3DAPWgK8Yczk-" version="21.2.9" type="device">
  <diagram id="ExhYxQzAcuOy9JHTL2ED" name="Page-1">
    <mxGraphModel dx="-1418" dy="492" grid="1" gridSize="10" guides="1" tooltips="1" connect="1" arrows="1" fold="1" page="1" pageScale="1" pageWidth="827" pageHeight="1169" math="0" shadow="0">
      <root>
        <mxCell id="0" />
        <mxCell id="1" parent="0" />
        <mxCell id="OmosYfTVODoG8E0LfseY-16" style="edgeStyle=orthogonalEdgeStyle;curved=1;orthogonalLoop=1;jettySize=auto;html=1;exitX=0;exitY=0.5;exitDx=0;exitDy=0;entryX=1;entryY=0.5;entryDx=0;entryDy=0;" parent="1" source="-zPoC6QKQFAVpqKAOt8C-109" target="-zPoC6QKQFAVpqKAOt8C-84" edge="1">
          <mxGeometry relative="1" as="geometry" />
        </mxCell>
        <mxCell id="a53ZNoNg1YWxC0AJf83k-15" value="" style="group" parent="1" vertex="1" connectable="0">
          <mxGeometry x="2998.5" y="367" width="120" height="120" as="geometry" />
        </mxCell>
        <mxCell id="a53ZNoNg1YWxC0AJf83k-16" value="" style="whiteSpace=wrap;html=1;aspect=fixed;strokeColor=#000000;" parent="a53ZNoNg1YWxC0AJf83k-15" vertex="1">
          <mxGeometry width="120" height="120" as="geometry" />
        </mxCell>
        <mxCell id="a53ZNoNg1YWxC0AJf83k-17" value="" style="rounded=0;whiteSpace=wrap;html=1;strokeColor=#000000;" parent="a53ZNoNg1YWxC0AJf83k-15" vertex="1">
          <mxGeometry width="120" height="90" as="geometry" />
        </mxCell>
        <mxCell id="a53ZNoNg1YWxC0AJf83k-18" value="" style="shape=cylinder3;whiteSpace=wrap;html=1;boundedLbl=1;backgroundOutline=1;size=15;" parent="a53ZNoNg1YWxC0AJf83k-15" vertex="1">
          <mxGeometry x="20" y="40" width="60" height="40" as="geometry" />
        </mxCell>
        <mxCell id="a53ZNoNg1YWxC0AJf83k-19" value="" style="shape=cylinder3;whiteSpace=wrap;html=1;boundedLbl=1;backgroundOutline=1;size=15;" parent="a53ZNoNg1YWxC0AJf83k-15" vertex="1">
          <mxGeometry x="20" y="30" width="60" height="40" as="geometry" />
        </mxCell>
        <mxCell id="a53ZNoNg1YWxC0AJf83k-20" value="" style="shape=cylinder3;whiteSpace=wrap;html=1;boundedLbl=1;backgroundOutline=1;size=15;" parent="a53ZNoNg1YWxC0AJf83k-15" vertex="1">
          <mxGeometry x="20" y="20" width="60" height="40" as="geometry" />
        </mxCell>
        <mxCell id="a53ZNoNg1YWxC0AJf83k-21" value="" style="shape=cylinder3;whiteSpace=wrap;html=1;boundedLbl=1;backgroundOutline=1;size=15;" parent="a53ZNoNg1YWxC0AJf83k-15" vertex="1">
          <mxGeometry x="20" y="10" width="60" height="40" as="geometry" />
        </mxCell>
        <mxCell id="a53ZNoNg1YWxC0AJf83k-22" value="" style="shape=image;verticalLabelPosition=bottom;labelBackgroundColor=default;verticalAlign=top;aspect=fixed;imageAspect=0;image=https://upload.wikimedia.org/wikipedia/commons/2/29/Postgresql_elephant.svg;" parent="a53ZNoNg1YWxC0AJf83k-15" vertex="1">
          <mxGeometry x="56.5" y="35" width="48.46" height="50" as="geometry" />
        </mxCell>
        <mxCell id="a53ZNoNg1YWxC0AJf83k-23" value="&lt;span style=&quot;font-weight: normal;&quot;&gt;postgreSQL&amp;nbsp;&lt;/span&gt;" style="text;html=1;strokeColor=none;fillColor=none;align=center;verticalAlign=middle;whiteSpace=wrap;rounded=0;fontStyle=1" parent="a53ZNoNg1YWxC0AJf83k-15" vertex="1">
          <mxGeometry y="90" width="120" height="30" as="geometry" />
        </mxCell>
        <mxCell id="a53ZNoNg1YWxC0AJf83k-24" value="" style="shape=image;verticalLabelPosition=bottom;labelBackgroundColor=default;verticalAlign=top;aspect=fixed;imageAspect=0;image=https://cdn.thenewstack.io/media/2014/04/homepage-docker-logo.png;" parent="a53ZNoNg1YWxC0AJf83k-15" vertex="1">
          <mxGeometry x="86.5" y="3" width="30.5" height="25.24" as="geometry" />
        </mxCell>
        <mxCell id="-zPoC6QKQFAVpqKAOt8C-34" value="" style="group;fillColor=#d5e8d4;strokeColor=#090D07;" parent="1" vertex="1" connectable="0">
          <mxGeometry x="2519" y="367" width="120" height="120" as="geometry" />
        </mxCell>
        <mxCell id="-zPoC6QKQFAVpqKAOt8C-36" value="&lt;b&gt;React&lt;/b&gt;" style="text;html=1;strokeColor=none;fillColor=none;align=center;verticalAlign=middle;whiteSpace=wrap;rounded=0;container=0;" parent="-zPoC6QKQFAVpqKAOt8C-34" vertex="1">
          <mxGeometry y="59" width="120" height="30" as="geometry" />
        </mxCell>
        <mxCell id="-zPoC6QKQFAVpqKAOt8C-37" value="&lt;b&gt;ion-frontend&lt;/b&gt;" style="rounded=0;whiteSpace=wrap;html=1;strokeColor=#000000;container=0;fillColor=#FF6C0A;" parent="-zPoC6QKQFAVpqKAOt8C-34" vertex="1">
          <mxGeometry y="90" width="120" height="30" as="geometry" />
        </mxCell>
        <mxCell id="-zPoC6QKQFAVpqKAOt8C-38" value="" style="shape=image;verticalLabelPosition=bottom;labelBackgroundColor=default;verticalAlign=top;aspect=fixed;imageAspect=0;image=https://upload.wikimedia.org/wikipedia/commons/thumb/a/a7/React-icon.svg/2300px-React-icon.svg.png;container=0;" parent="-zPoC6QKQFAVpqKAOt8C-34" vertex="1">
          <mxGeometry x="33" y="17" width="53.02" height="46.08" as="geometry" />
        </mxCell>
        <mxCell id="-zPoC6QKQFAVpqKAOt8C-39" value="" style="shape=image;verticalLabelPosition=bottom;labelBackgroundColor=default;verticalAlign=top;aspect=fixed;imageAspect=0;image=https://cdn.thenewstack.io/media/2014/04/homepage-docker-logo.png;" parent="-zPoC6QKQFAVpqKAOt8C-34" vertex="1">
          <mxGeometry x="86.5" y="3" width="30.5" height="25.24" as="geometry" />
        </mxCell>
        <mxCell id="-zPoC6QKQFAVpqKAOt8C-41" value="" style="group;fontStyle=1" parent="1" vertex="1" connectable="0">
          <mxGeometry x="2670" y="318" width="120" height="217" as="geometry" />
        </mxCell>
        <mxCell id="-zPoC6QKQFAVpqKAOt8C-42" value="" style="rounded=0;whiteSpace=wrap;html=1;strokeColor=#7D7D7D;" parent="-zPoC6QKQFAVpqKAOt8C-41" vertex="1">
          <mxGeometry width="120" height="217" as="geometry" />
        </mxCell>
        <mxCell id="-zPoC6QKQFAVpqKAOt8C-43" value="" style="group" parent="-zPoC6QKQFAVpqKAOt8C-41" vertex="1" connectable="0">
          <mxGeometry x="14.5" y="36.61875" width="88" height="108.5" as="geometry" />
        </mxCell>
        <mxCell id="-zPoC6QKQFAVpqKAOt8C-44" value="" style="ellipse;whiteSpace=wrap;html=1;strokeColor=#000000;strokeWidth=2;" parent="-zPoC6QKQFAVpqKAOt8C-43" vertex="1">
          <mxGeometry x="43" width="24" height="108.5" as="geometry" />
        </mxCell>
        <mxCell id="-zPoC6QKQFAVpqKAOt8C-45" value="" style="rounded=0;whiteSpace=wrap;html=1;strokeColor=#FFFFFF;" parent="-zPoC6QKQFAVpqKAOt8C-43" vertex="1">
          <mxGeometry x="41" y="33.90625" width="10" height="40.6875" as="geometry" />
        </mxCell>
        <mxCell id="-zPoC6QKQFAVpqKAOt8C-46" value="" style="endArrow=none;html=1;strokeWidth=3;curved=1;" parent="-zPoC6QKQFAVpqKAOt8C-43" edge="1">
          <mxGeometry width="50" height="50" relative="1" as="geometry">
            <mxPoint x="12.5" y="37.975" as="sourcePoint" />
            <mxPoint x="59.5" y="37.975" as="targetPoint" />
          </mxGeometry>
        </mxCell>
        <mxCell id="-zPoC6QKQFAVpqKAOt8C-47" value="" style="endArrow=none;html=1;strokeWidth=3;curved=1;" parent="-zPoC6QKQFAVpqKAOt8C-43" edge="1">
          <mxGeometry width="50" height="50" relative="1" as="geometry">
            <mxPoint y="52.89375" as="sourcePoint" />
            <mxPoint x="60" y="52.89375" as="targetPoint" />
          </mxGeometry>
        </mxCell>
        <mxCell id="-zPoC6QKQFAVpqKAOt8C-48" value="" style="endArrow=none;html=1;strokeWidth=3;curved=1;" parent="-zPoC6QKQFAVpqKAOt8C-43" edge="1">
          <mxGeometry width="50" height="50" relative="1" as="geometry">
            <mxPoint x="13" y="67.8125" as="sourcePoint" />
            <mxPoint x="60" y="67.8125" as="targetPoint" />
          </mxGeometry>
        </mxCell>
        <mxCell id="-zPoC6QKQFAVpqKAOt8C-49" value="" style="endArrow=none;html=1;strokeWidth=3;curved=1;" parent="-zPoC6QKQFAVpqKAOt8C-43" edge="1">
          <mxGeometry width="50" height="50" relative="1" as="geometry">
            <mxPoint x="68" y="44.75625" as="sourcePoint" />
            <mxPoint x="88" y="44.75625" as="targetPoint" />
          </mxGeometry>
        </mxCell>
        <mxCell id="-zPoC6QKQFAVpqKAOt8C-50" value="" style="endArrow=none;html=1;strokeWidth=3;curved=1;" parent="-zPoC6QKQFAVpqKAOt8C-43" edge="1">
          <mxGeometry width="50" height="50" relative="1" as="geometry">
            <mxPoint x="68" y="56.9625" as="sourcePoint" />
            <mxPoint x="88" y="56.9625" as="targetPoint" />
          </mxGeometry>
        </mxCell>
        <mxCell id="-zPoC6QKQFAVpqKAOt8C-51" value="&lt;span style=&quot;font-weight: normal;&quot;&gt;api-gateway&lt;/span&gt;" style="rounded=0;whiteSpace=wrap;html=1;strokeColor=#7D7D7D;strokeWidth=1;fontStyle=1" parent="-zPoC6QKQFAVpqKAOt8C-41" vertex="1">
          <mxGeometry y="176.3125" width="120" height="40.6875" as="geometry" />
        </mxCell>
        <mxCell id="-zPoC6QKQFAVpqKAOt8C-52" value="" style="group" parent="1" vertex="1" connectable="0">
          <mxGeometry x="3074" y="844" width="120" height="120" as="geometry" />
        </mxCell>
        <mxCell id="-zPoC6QKQFAVpqKAOt8C-53" value="" style="whiteSpace=wrap;html=1;aspect=fixed;strokeColor=#000000;fillColor=#D5E8D4;" parent="-zPoC6QKQFAVpqKAOt8C-52" vertex="1">
          <mxGeometry width="120" height="120" as="geometry" />
        </mxCell>
        <mxCell id="-zPoC6QKQFAVpqKAOt8C-54" value="" style="shape=image;verticalLabelPosition=bottom;labelBackgroundColor=default;verticalAlign=top;aspect=fixed;imageAspect=0;image=https://cdn.cookielaw.org/logos/06aed6f4-2a95-4ea3-830f-8a58d00e95f3/a5bbb6a9-9eda-4337-911d-748d3ba8de00/e6a6f399-c126-472d-8dcb-721200063fe9/prefect-logo-gradient-navy.png;clipPath=inset(0% 83.33% 0% 0%);" parent="-zPoC6QKQFAVpqKAOt8C-52" vertex="1">
          <mxGeometry x="44.440000000000055" y="14.090000000000032" width="31.11" height="47.91" as="geometry" />
        </mxCell>
        <mxCell id="-zPoC6QKQFAVpqKAOt8C-55" value="&lt;b&gt;Prefect&lt;/b&gt;" style="text;html=1;strokeColor=none;fillColor=none;align=center;verticalAlign=middle;whiteSpace=wrap;rounded=0;" parent="-zPoC6QKQFAVpqKAOt8C-52" vertex="1">
          <mxGeometry y="61" width="120" height="30" as="geometry" />
        </mxCell>
        <mxCell id="-zPoC6QKQFAVpqKAOt8C-56" value="&lt;b&gt;data-engine&lt;/b&gt;" style="rounded=0;whiteSpace=wrap;html=1;strokeColor=#000000;fillColor=#FFC847;" parent="-zPoC6QKQFAVpqKAOt8C-52" vertex="1">
          <mxGeometry y="90" width="120" height="30" as="geometry" />
        </mxCell>
        <mxCell id="-zPoC6QKQFAVpqKAOt8C-57" value="" style="shape=image;verticalLabelPosition=bottom;labelBackgroundColor=default;verticalAlign=top;aspect=fixed;imageAspect=0;image=https://cdn.thenewstack.io/media/2014/04/homepage-docker-logo.png;" parent="-zPoC6QKQFAVpqKAOt8C-52" vertex="1">
          <mxGeometry x="87.5" y="2" width="30.5" height="25.24" as="geometry" />
        </mxCell>
        <mxCell id="-zPoC6QKQFAVpqKAOt8C-58" value="" style="shape=image;verticalLabelPosition=bottom;labelBackgroundColor=default;verticalAlign=top;aspect=fixed;imageAspect=0;image=https://cdn3.iconfinder.com/data/icons/logos-and-brands-adobe/512/267_Python-512.png;" parent="-zPoC6QKQFAVpqKAOt8C-52" vertex="1">
          <mxGeometry x="3" y="3" width="30" height="30" as="geometry" />
        </mxCell>
        <mxCell id="-zPoC6QKQFAVpqKAOt8C-83" value="" style="group;fillColor=#CAAEF5;fontColor=#333333;strokeColor=#666666;" parent="1" vertex="1" connectable="0">
          <mxGeometry x="2999" y="520" width="120" height="120" as="geometry" />
        </mxCell>
        <mxCell id="-zPoC6QKQFAVpqKAOt8C-84" value="" style="whiteSpace=wrap;html=1;aspect=fixed;strokeColor=#000000;" parent="-zPoC6QKQFAVpqKAOt8C-83" vertex="1">
          <mxGeometry width="120" height="120" as="geometry" />
        </mxCell>
        <mxCell id="-zPoC6QKQFAVpqKAOt8C-85" value="&lt;b&gt;Celery&lt;/b&gt;" style="text;html=1;strokeColor=none;fillColor=none;align=center;verticalAlign=middle;whiteSpace=wrap;rounded=0;" parent="-zPoC6QKQFAVpqKAOt8C-83" vertex="1">
          <mxGeometry y="61" width="120" height="30" as="geometry" />
        </mxCell>
        <mxCell id="-zPoC6QKQFAVpqKAOt8C-86" value="celery worker" style="rounded=0;whiteSpace=wrap;html=1;strokeColor=#000000;" parent="-zPoC6QKQFAVpqKAOt8C-83" vertex="1">
          <mxGeometry y="90" width="120" height="30" as="geometry" />
        </mxCell>
        <mxCell id="-zPoC6QKQFAVpqKAOt8C-87" value="" style="shape=image;verticalLabelPosition=bottom;labelBackgroundColor=default;verticalAlign=top;aspect=fixed;imageAspect=0;image=https://upload.wikimedia.org/wikipedia/commons/1/19/Celery_logo.png;" parent="-zPoC6QKQFAVpqKAOt8C-83" vertex="1">
          <mxGeometry x="20" width="80" height="80" as="geometry" />
        </mxCell>
        <mxCell id="-zPoC6QKQFAVpqKAOt8C-105" value="" style="group" parent="1" vertex="1" connectable="0">
          <mxGeometry x="2840" y="524" width="516" height="656" as="geometry" />
        </mxCell>
        <mxCell id="_iZkiCQIXDb09jmAlb5r-14" value="REST" style="rounded=0;whiteSpace=wrap;html=1;rotation=-90;fillColor=#FFFFFF;" parent="-zPoC6QKQFAVpqKAOt8C-105" vertex="1">
          <mxGeometry x="263" y="45.73000000000002" width="80" height="20" as="geometry" />
        </mxCell>
        <mxCell id="-zPoC6QKQFAVpqKAOt8C-99" value="" style="whiteSpace=wrap;html=1;aspect=fixed;strokeColor=#000000;" parent="-zPoC6QKQFAVpqKAOt8C-105" vertex="1">
          <mxGeometry y="-4" width="119.46666666666667" height="119.46666666666667" as="geometry" />
        </mxCell>
        <mxCell id="-zPoC6QKQFAVpqKAOt8C-100" value="&lt;b&gt;rabbitMQ&lt;/b&gt;" style="text;html=1;strokeColor=none;fillColor=none;align=center;verticalAlign=middle;whiteSpace=wrap;rounded=0;" parent="-zPoC6QKQFAVpqKAOt8C-105" vertex="1">
          <mxGeometry y="57" width="119.46666666666667" height="30" as="geometry" />
        </mxCell>
        <mxCell id="-zPoC6QKQFAVpqKAOt8C-101" value="message broker" style="rounded=0;whiteSpace=wrap;html=1;strokeColor=#000000;" parent="-zPoC6QKQFAVpqKAOt8C-105" vertex="1">
          <mxGeometry y="86" width="119.46666666666667" height="30" as="geometry" />
        </mxCell>
        <mxCell id="-zPoC6QKQFAVpqKAOt8C-102" value="" style="shape=image;verticalLabelPosition=bottom;labelBackgroundColor=default;verticalAlign=top;aspect=fixed;imageAspect=0;image=https://cdn.thenewstack.io/media/2014/04/homepage-docker-logo.png;" parent="-zPoC6QKQFAVpqKAOt8C-105" vertex="1">
          <mxGeometry x="87.11111111111131" y="-2" width="30.364444444444445" height="25.12782222222222" as="geometry" />
        </mxCell>
        <mxCell id="-zPoC6QKQFAVpqKAOt8C-103" value="" style="shape=image;verticalLabelPosition=bottom;labelBackgroundColor=default;verticalAlign=top;aspect=fixed;imageAspect=0;image=https://cdn.freebiesupply.com/logos/large/2x/rabbitmq-logo-png-transparent.png;" parent="-zPoC6QKQFAVpqKAOt8C-105" vertex="1">
          <mxGeometry x="42.06222222222232" y="19.399999999999977" width="35.34222222222222" height="37.43288888888889" as="geometry" />
        </mxCell>
        <mxCell id="-zPoC6QKQFAVpqKAOt8C-139" value="" style="group" parent="-zPoC6QKQFAVpqKAOt8C-105" vertex="1" connectable="0">
          <mxGeometry x="10.000000000000128" y="300" width="160.5" height="160" as="geometry" />
        </mxCell>
        <mxCell id="-zPoC6QKQFAVpqKAOt8C-140" value="" style="rounded=0;whiteSpace=wrap;html=1;dashed=1;dashPattern=1 2;fillColor=#D5E8D4;" parent="-zPoC6QKQFAVpqKAOt8C-139" vertex="1">
          <mxGeometry width="160.5" height="160" as="geometry" />
        </mxCell>
        <mxCell id="-zPoC6QKQFAVpqKAOt8C-142" value="ion-clients" style="rounded=0;whiteSpace=wrap;html=1;fontStyle=1;dashed=1;dashPattern=1 1;fillColor=#FFC847;" parent="-zPoC6QKQFAVpqKAOt8C-139" vertex="1">
          <mxGeometry y="130" width="160.5" height="30" as="geometry" />
        </mxCell>
        <mxCell id="-zPoC6QKQFAVpqKAOt8C-143" value="pypi package" style="text;html=1;strokeColor=none;fillColor=none;align=center;verticalAlign=middle;whiteSpace=wrap;rounded=0;fontStyle=1" parent="-zPoC6QKQFAVpqKAOt8C-139" vertex="1">
          <mxGeometry y="90" width="160.5" height="30" as="geometry" />
        </mxCell>
        <mxCell id="_iZkiCQIXDb09jmAlb5r-5" value="" style="shape=image;verticalLabelPosition=bottom;labelBackgroundColor=default;verticalAlign=top;aspect=fixed;imageAspect=0;image=https://seeklogo.com/images/P/python-logo-A32636CAA3-seeklogo.com.png;" parent="-zPoC6QKQFAVpqKAOt8C-139" vertex="1">
          <mxGeometry x="42.870000000000005" y="16.750000000000004" width="74.75" height="74.25" as="geometry" />
        </mxCell>
        <mxCell id="-zPoC6QKQFAVpqKAOt8C-115" value="" style="group;fillColor=#d5e8d4;strokeColor=#82b366;" parent="1" vertex="1" connectable="0">
          <mxGeometry x="3159" y="520" width="121" height="120" as="geometry" />
        </mxCell>
        <mxCell id="-zPoC6QKQFAVpqKAOt8C-109" value="" style="whiteSpace=wrap;html=1;aspect=fixed;strokeColor=#000000;fontSize=30;fillColor=#D5E8D4;" parent="-zPoC6QKQFAVpqKAOt8C-115" vertex="1">
          <mxGeometry width="120" height="120" as="geometry" />
        </mxCell>
        <mxCell id="-zPoC6QKQFAVpqKAOt8C-110" value="&lt;b&gt;FASTAPI&lt;/b&gt;" style="text;html=1;strokeColor=none;fillColor=none;align=center;verticalAlign=middle;whiteSpace=wrap;rounded=0;container=0;" parent="-zPoC6QKQFAVpqKAOt8C-115" vertex="1">
          <mxGeometry x="1" y="60" width="120" height="30" as="geometry" />
        </mxCell>
        <mxCell id="-zPoC6QKQFAVpqKAOt8C-111" value="&lt;b&gt;data-backend&lt;/b&gt;" style="rounded=0;whiteSpace=wrap;html=1;strokeColor=#000000;container=0;fillColor=#FFC847;" parent="-zPoC6QKQFAVpqKAOt8C-115" vertex="1">
          <mxGeometry y="90" width="120" height="30" as="geometry" />
        </mxCell>
        <mxCell id="-zPoC6QKQFAVpqKAOt8C-113" value="" style="shape=image;verticalLabelPosition=bottom;labelBackgroundColor=default;verticalAlign=top;aspect=fixed;imageAspect=0;image=https://cdn.thenewstack.io/media/2014/04/homepage-docker-logo.png;" parent="-zPoC6QKQFAVpqKAOt8C-115" vertex="1">
          <mxGeometry x="87.5" y="3" width="30.5" height="25.24" as="geometry" />
        </mxCell>
        <mxCell id="-zPoC6QKQFAVpqKAOt8C-114" value="" style="shape=image;verticalLabelPosition=bottom;labelBackgroundColor=default;verticalAlign=top;aspect=fixed;imageAspect=0;image=https://cdn3.iconfinder.com/data/icons/logos-and-brands-adobe/512/267_Python-512.png;" parent="-zPoC6QKQFAVpqKAOt8C-115" vertex="1">
          <mxGeometry x="3" y="3" width="30" height="30" as="geometry" />
        </mxCell>
        <mxCell id="_iZkiCQIXDb09jmAlb5r-3" value="" style="shape=image;verticalLabelPosition=bottom;labelBackgroundColor=default;verticalAlign=top;aspect=fixed;imageAspect=0;image=https://cdn.worldvectorlogo.com/logos/fastapi.svg;" parent="-zPoC6QKQFAVpqKAOt8C-115" vertex="1">
          <mxGeometry x="34" y="12" width="52" height="52" as="geometry" />
        </mxCell>
        <mxCell id="-zPoC6QKQFAVpqKAOt8C-117" value="" style="group" parent="1" vertex="1" connectable="0">
          <mxGeometry x="2840" y="367" width="300" height="131" as="geometry" />
        </mxCell>
        <mxCell id="-zPoC6QKQFAVpqKAOt8C-118" value="" style="whiteSpace=wrap;html=1;aspect=fixed;strokeColor=#000000;fontSize=30;fillColor=#FFFFFF;" parent="-zPoC6QKQFAVpqKAOt8C-117" vertex="1">
          <mxGeometry width="120" height="120" as="geometry" />
        </mxCell>
        <mxCell id="-zPoC6QKQFAVpqKAOt8C-119" value="&lt;b&gt;FASTAPI&lt;/b&gt;" style="text;html=1;strokeColor=none;fillColor=none;align=center;verticalAlign=middle;whiteSpace=wrap;rounded=0;container=0;" parent="-zPoC6QKQFAVpqKAOt8C-117" vertex="1">
          <mxGeometry x="1" y="60" width="120" height="30" as="geometry" />
        </mxCell>
        <mxCell id="-zPoC6QKQFAVpqKAOt8C-120" value="&lt;b&gt;ion-user&lt;/b&gt;" style="rounded=0;whiteSpace=wrap;html=1;strokeColor=#000000;container=0;fillColor=#FFC847;" parent="-zPoC6QKQFAVpqKAOt8C-117" vertex="1">
          <mxGeometry y="90" width="120" height="30" as="geometry" />
        </mxCell>
        <mxCell id="-zPoC6QKQFAVpqKAOt8C-122" value="" style="shape=image;verticalLabelPosition=bottom;labelBackgroundColor=default;verticalAlign=top;aspect=fixed;imageAspect=0;image=https://cdn.thenewstack.io/media/2014/04/homepage-docker-logo.png;" parent="-zPoC6QKQFAVpqKAOt8C-117" vertex="1">
          <mxGeometry x="87.5" y="3" width="30.5" height="25.24" as="geometry" />
        </mxCell>
        <mxCell id="-zPoC6QKQFAVpqKAOt8C-123" value="" style="shape=image;verticalLabelPosition=bottom;labelBackgroundColor=default;verticalAlign=top;aspect=fixed;imageAspect=0;image=https://cdn3.iconfinder.com/data/icons/logos-and-brands-adobe/512/267_Python-512.png;" parent="-zPoC6QKQFAVpqKAOt8C-117" vertex="1">
          <mxGeometry x="3" y="3" width="30" height="30" as="geometry" />
        </mxCell>
        <mxCell id="_iZkiCQIXDb09jmAlb5r-4" value="" style="shape=image;verticalLabelPosition=bottom;labelBackgroundColor=default;verticalAlign=top;aspect=fixed;imageAspect=0;image=https://cdn.worldvectorlogo.com/logos/fastapi.svg;" parent="-zPoC6QKQFAVpqKAOt8C-117" vertex="1">
          <mxGeometry x="33" y="11" width="52" height="52" as="geometry" />
        </mxCell>
        <mxCell id="-zPoC6QKQFAVpqKAOt8C-124" value="" style="group" parent="1" vertex="1" connectable="0">
          <mxGeometry x="2999" y="219" width="119" height="120" as="geometry" />
        </mxCell>
        <mxCell id="-zPoC6QKQFAVpqKAOt8C-125" value="" style="rounded=0;whiteSpace=wrap;html=1;fontStyle=1;strokeColor=#7D7D7D;" parent="-zPoC6QKQFAVpqKAOt8C-124" vertex="1">
          <mxGeometry width="119" height="120" as="geometry" />
        </mxCell>
        <mxCell id="-zPoC6QKQFAVpqKAOt8C-126" value="ion-compute" style="rounded=0;whiteSpace=wrap;html=1;fontStyle=1;strokeColor=#7D7D7D;fillColor=#FFC847;" parent="-zPoC6QKQFAVpqKAOt8C-124" vertex="1">
          <mxGeometry y="90" width="119" height="30" as="geometry" />
        </mxCell>
        <mxCell id="-zPoC6QKQFAVpqKAOt8C-24" value="" style="group" parent="1" vertex="1" connectable="0">
          <mxGeometry x="3160" y="684" width="120" height="120" as="geometry" />
        </mxCell>
        <mxCell id="-zPoC6QKQFAVpqKAOt8C-25" value="" style="whiteSpace=wrap;html=1;aspect=fixed;strokeColor=#000000;" parent="-zPoC6QKQFAVpqKAOt8C-24" vertex="1">
          <mxGeometry width="120" height="120" as="geometry" />
        </mxCell>
        <mxCell id="-zPoC6QKQFAVpqKAOt8C-26" value="" style="rounded=0;whiteSpace=wrap;html=1;strokeColor=#090D07;fillColor=#d5e8d4;" parent="-zPoC6QKQFAVpqKAOt8C-24" vertex="1">
          <mxGeometry width="120" height="90" as="geometry" />
        </mxCell>
        <mxCell id="-zPoC6QKQFAVpqKAOt8C-27" value="" style="shape=cylinder3;whiteSpace=wrap;html=1;boundedLbl=1;backgroundOutline=1;size=15;" parent="-zPoC6QKQFAVpqKAOt8C-24" vertex="1">
          <mxGeometry x="20" y="40" width="60" height="40" as="geometry" />
        </mxCell>
        <mxCell id="-zPoC6QKQFAVpqKAOt8C-28" value="" style="shape=cylinder3;whiteSpace=wrap;html=1;boundedLbl=1;backgroundOutline=1;size=15;" parent="-zPoC6QKQFAVpqKAOt8C-24" vertex="1">
          <mxGeometry x="20" y="30" width="60" height="40" as="geometry" />
        </mxCell>
        <mxCell id="-zPoC6QKQFAVpqKAOt8C-29" value="" style="shape=cylinder3;whiteSpace=wrap;html=1;boundedLbl=1;backgroundOutline=1;size=15;" parent="-zPoC6QKQFAVpqKAOt8C-24" vertex="1">
          <mxGeometry x="20" y="20" width="60" height="40" as="geometry" />
        </mxCell>
        <mxCell id="-zPoC6QKQFAVpqKAOt8C-30" value="" style="shape=cylinder3;whiteSpace=wrap;html=1;boundedLbl=1;backgroundOutline=1;size=15;" parent="-zPoC6QKQFAVpqKAOt8C-24" vertex="1">
          <mxGeometry x="20" y="10" width="60" height="40" as="geometry" />
        </mxCell>
        <mxCell id="-zPoC6QKQFAVpqKAOt8C-31" value="" style="shape=image;verticalLabelPosition=bottom;labelBackgroundColor=default;verticalAlign=top;aspect=fixed;imageAspect=0;image=https://upload.wikimedia.org/wikipedia/commons/2/29/Postgresql_elephant.svg;" parent="-zPoC6QKQFAVpqKAOt8C-24" vertex="1">
          <mxGeometry x="56.5" y="35" width="48.46" height="50" as="geometry" />
        </mxCell>
        <mxCell id="-zPoC6QKQFAVpqKAOt8C-32" value="&lt;span style=&quot;font-weight: normal;&quot;&gt;postgreSQL&amp;nbsp;&lt;/span&gt;" style="text;html=1;strokeColor=none;fillColor=none;align=center;verticalAlign=middle;whiteSpace=wrap;rounded=0;fontStyle=1" parent="-zPoC6QKQFAVpqKAOt8C-24" vertex="1">
          <mxGeometry y="90" width="120" height="30" as="geometry" />
        </mxCell>
        <mxCell id="-zPoC6QKQFAVpqKAOt8C-33" value="" style="shape=image;verticalLabelPosition=bottom;labelBackgroundColor=default;verticalAlign=top;aspect=fixed;imageAspect=0;image=https://cdn.thenewstack.io/media/2014/04/homepage-docker-logo.png;" parent="-zPoC6QKQFAVpqKAOt8C-24" vertex="1">
          <mxGeometry x="86.5" y="3" width="30.5" height="25.24" as="geometry" />
        </mxCell>
        <mxCell id="-zPoC6QKQFAVpqKAOt8C-129" value="" style="group;fontStyle=1" parent="1" vertex="1" connectable="0">
          <mxGeometry x="2994.5" y="684" width="131.5" height="120" as="geometry" />
        </mxCell>
        <mxCell id="-zPoC6QKQFAVpqKAOt8C-130" value="" style="whiteSpace=wrap;html=1;aspect=fixed;strokeColor=#000000;" parent="-zPoC6QKQFAVpqKAOt8C-129" vertex="1">
          <mxGeometry width="120" height="120" as="geometry" />
        </mxCell>
        <mxCell id="-zPoC6QKQFAVpqKAOt8C-131" value="" style="rounded=0;whiteSpace=wrap;html=1;strokeColor=#000000;" parent="-zPoC6QKQFAVpqKAOt8C-129" vertex="1">
          <mxGeometry width="120" height="90" as="geometry" />
        </mxCell>
        <mxCell id="-zPoC6QKQFAVpqKAOt8C-132" value="" style="shape=cylinder3;whiteSpace=wrap;html=1;boundedLbl=1;backgroundOutline=1;size=15;" parent="-zPoC6QKQFAVpqKAOt8C-129" vertex="1">
          <mxGeometry x="20" y="40" width="60" height="40" as="geometry" />
        </mxCell>
        <mxCell id="-zPoC6QKQFAVpqKAOt8C-133" value="" style="shape=cylinder3;whiteSpace=wrap;html=1;boundedLbl=1;backgroundOutline=1;size=15;" parent="-zPoC6QKQFAVpqKAOt8C-129" vertex="1">
          <mxGeometry x="20" y="30" width="60" height="40" as="geometry" />
        </mxCell>
        <mxCell id="-zPoC6QKQFAVpqKAOt8C-134" value="" style="shape=cylinder3;whiteSpace=wrap;html=1;boundedLbl=1;backgroundOutline=1;size=15;" parent="-zPoC6QKQFAVpqKAOt8C-129" vertex="1">
          <mxGeometry x="20" y="20" width="60" height="40" as="geometry" />
        </mxCell>
        <mxCell id="-zPoC6QKQFAVpqKAOt8C-135" value="" style="shape=cylinder3;whiteSpace=wrap;html=1;boundedLbl=1;backgroundOutline=1;size=15;" parent="-zPoC6QKQFAVpqKAOt8C-129" vertex="1">
          <mxGeometry x="20" y="10" width="60" height="40" as="geometry" />
        </mxCell>
        <mxCell id="-zPoC6QKQFAVpqKAOt8C-136" value="&lt;span style=&quot;font-weight: normal;&quot;&gt;elasticDB&lt;/span&gt;" style="text;html=1;strokeColor=none;fillColor=none;align=center;verticalAlign=middle;whiteSpace=wrap;rounded=0;fontStyle=1" parent="-zPoC6QKQFAVpqKAOt8C-129" vertex="1">
          <mxGeometry y="90" width="120" height="30" as="geometry" />
        </mxCell>
        <mxCell id="-zPoC6QKQFAVpqKAOt8C-137" value="" style="shape=image;verticalLabelPosition=bottom;labelBackgroundColor=default;verticalAlign=top;aspect=fixed;imageAspect=0;image=https://cdn.thenewstack.io/media/2014/04/homepage-docker-logo.png;" parent="-zPoC6QKQFAVpqKAOt8C-129" vertex="1">
          <mxGeometry x="86.5" y="3" width="30.5" height="25.24" as="geometry" />
        </mxCell>
        <mxCell id="u-DgzFeKoAux1yq-i6dl-1" value="" style="shape=image;verticalLabelPosition=bottom;labelBackgroundColor=default;verticalAlign=top;aspect=fixed;imageAspect=0;image=https://plugins.jetbrains.com/files/14512/318428/icon/pluginIcon.png;" parent="-zPoC6QKQFAVpqKAOt8C-129" vertex="1">
          <mxGeometry x="45.5" y="28" width="60.75" height="60.75" as="geometry" />
        </mxCell>
        <mxCell id="OmosYfTVODoG8E0LfseY-11" value="" style="endArrow=classic;html=1;curved=1;entryX=0.5;entryY=1;entryDx=0;entryDy=0;exitX=0.5;exitY=0;exitDx=0;exitDy=0;" parent="1" source="-zPoC6QKQFAVpqKAOt8C-131" target="-zPoC6QKQFAVpqKAOt8C-111" edge="1">
          <mxGeometry width="50" height="50" relative="1" as="geometry">
            <mxPoint x="2974" y="794" as="sourcePoint" />
            <mxPoint x="3024" y="744" as="targetPoint" />
            <Array as="points">
              <mxPoint x="3214" y="664" />
            </Array>
          </mxGeometry>
        </mxCell>
        <mxCell id="OmosYfTVODoG8E0LfseY-13" style="edgeStyle=orthogonalEdgeStyle;curved=1;orthogonalLoop=1;jettySize=auto;html=1;exitX=0.5;exitY=0;exitDx=0;exitDy=0;entryX=0.5;entryY=1;entryDx=0;entryDy=0;" parent="1" source="-zPoC6QKQFAVpqKAOt8C-26" target="-zPoC6QKQFAVpqKAOt8C-111" edge="1">
          <mxGeometry relative="1" as="geometry" />
        </mxCell>
        <mxCell id="OmosYfTVODoG8E0LfseY-14" style="edgeStyle=orthogonalEdgeStyle;curved=1;orthogonalLoop=1;jettySize=auto;html=1;exitX=0.5;exitY=0;exitDx=0;exitDy=0;entryX=0.5;entryY=1;entryDx=0;entryDy=0;" parent="1" source="-zPoC6QKQFAVpqKAOt8C-53" target="-zPoC6QKQFAVpqKAOt8C-32" edge="1">
          <mxGeometry relative="1" as="geometry" />
        </mxCell>
        <mxCell id="OmosYfTVODoG8E0LfseY-15" style="edgeStyle=orthogonalEdgeStyle;curved=1;orthogonalLoop=1;jettySize=auto;html=1;exitX=0.5;exitY=0;exitDx=0;exitDy=0;entryX=0.5;entryY=1;entryDx=0;entryDy=0;" parent="1" source="-zPoC6QKQFAVpqKAOt8C-53" target="-zPoC6QKQFAVpqKAOt8C-136" edge="1">
          <mxGeometry relative="1" as="geometry" />
        </mxCell>
        <mxCell id="OmosYfTVODoG8E0LfseY-19" style="edgeStyle=orthogonalEdgeStyle;curved=1;orthogonalLoop=1;jettySize=auto;html=1;" parent="1" source="-zPoC6QKQFAVpqKAOt8C-84" target="-zPoC6QKQFAVpqKAOt8C-99" edge="1">
          <mxGeometry relative="1" as="geometry" />
        </mxCell>
        <mxCell id="OmosYfTVODoG8E0LfseY-20" value="" style="edgeStyle=orthogonalEdgeStyle;curved=1;orthogonalLoop=1;jettySize=auto;html=1;" parent="1" source="-zPoC6QKQFAVpqKAOt8C-42" edge="1">
          <mxGeometry relative="1" as="geometry">
            <mxPoint x="2639" y="427" as="targetPoint" />
          </mxGeometry>
        </mxCell>
        <mxCell id="OmosYfTVODoG8E0LfseY-22" style="edgeStyle=orthogonalEdgeStyle;curved=1;orthogonalLoop=1;jettySize=auto;html=1;entryX=1;entryY=0.5;entryDx=0;entryDy=0;" parent="1" source="-zPoC6QKQFAVpqKAOt8C-118" target="-zPoC6QKQFAVpqKAOt8C-42" edge="1">
          <mxGeometry relative="1" as="geometry" />
        </mxCell>
        <mxCell id="OmosYfTVODoG8E0LfseY-24" value="" style="endArrow=classic;html=1;curved=1;entryX=1;entryY=0.5;entryDx=0;entryDy=0;exitX=-0.001;exitY=0.667;exitDx=0;exitDy=0;exitPerimeter=0;" parent="1" source="a53ZNoNg1YWxC0AJf83k-17" target="-zPoC6QKQFAVpqKAOt8C-118" edge="1">
          <mxGeometry width="50" height="50" relative="1" as="geometry">
            <mxPoint x="2994" y="314" as="sourcePoint" />
            <mxPoint x="2934" y="534" as="targetPoint" />
          </mxGeometry>
        </mxCell>
        <mxCell id="OmosYfTVODoG8E0LfseY-25" style="edgeStyle=orthogonalEdgeStyle;curved=1;orthogonalLoop=1;jettySize=auto;html=1;exitX=1;exitY=0.5;exitDx=0;exitDy=0;entryX=0;entryY=0.5;entryDx=0;entryDy=0;" parent="1" source="-zPoC6QKQFAVpqKAOt8C-42" target="-zPoC6QKQFAVpqKAOt8C-99" edge="1">
          <mxGeometry relative="1" as="geometry" />
        </mxCell>
        <mxCell id="uj80zUFOL1TgEEegZI_c-10" style="edgeStyle=orthogonalEdgeStyle;curved=1;orthogonalLoop=1;jettySize=auto;html=1;exitX=1;exitY=0.5;exitDx=0;exitDy=0;" parent="1" source="-zPoC6QKQFAVpqKAOt8C-140" target="-zPoC6QKQFAVpqKAOt8C-53" edge="1">
          <mxGeometry relative="1" as="geometry" />
        </mxCell>
        <mxCell id="PHPO2o-kH9OnLnHtMdVv-5" value="" style="edgeStyle=orthogonalEdgeStyle;rounded=0;orthogonalLoop=1;jettySize=auto;html=1;entryX=1;entryY=0.5;entryDx=0;entryDy=0;" parent="1" source="-zPoC6QKQFAVpqKAOt8C-125" target="PHPO2o-kH9OnLnHtMdVv-3" edge="1">
          <mxGeometry relative="1" as="geometry" />
        </mxCell>
        <mxCell id="PHPO2o-kH9OnLnHtMdVv-6" style="edgeStyle=orthogonalEdgeStyle;curved=1;orthogonalLoop=1;jettySize=auto;html=1;entryX=0;entryY=0.5;entryDx=0;entryDy=0;exitX=1;exitY=0.5;exitDx=0;exitDy=0;" parent="1" source="-zPoC6QKQFAVpqKAOt8C-42" target="PHPO2o-kH9OnLnHtMdVv-3" edge="1">
          <mxGeometry relative="1" as="geometry">
            <mxPoint x="2790" y="420" as="sourcePoint" />
            <mxPoint x="2844" y="594" as="targetPoint" />
          </mxGeometry>
        </mxCell>
        <mxCell id="_iZkiCQIXDb09jmAlb5r-9" value="" style="group" parent="1" vertex="1" connectable="0">
          <mxGeometry x="2849.95" y="160" width="100" height="60" as="geometry" />
        </mxCell>
        <mxCell id="_iZkiCQIXDb09jmAlb5r-8" value="" style="rounded=0;whiteSpace=wrap;html=1;strokeColor=#7D7D7D;" parent="_iZkiCQIXDb09jmAlb5r-9" vertex="1">
          <mxGeometry width="100" height="60" as="geometry" />
        </mxCell>
        <mxCell id="_iZkiCQIXDb09jmAlb5r-7" value="" style="shape=image;verticalLabelPosition=bottom;labelBackgroundColor=default;verticalAlign=top;aspect=fixed;imageAspect=0;image=https://upload.wikimedia.org/wikipedia/commons/thumb/7/77/Apache_ZooKeeper_logo.svg/1200px-Apache_ZooKeeper_logo.svg.png;" parent="_iZkiCQIXDb09jmAlb5r-9" vertex="1">
          <mxGeometry x="13.489999999999782" y="10" width="73.96" height="40" as="geometry" />
        </mxCell>
        <mxCell id="_iZkiCQIXDb09jmAlb5r-10" value="" style="endArrow=none;html=1;rounded=0;exitX=0.5;exitY=0;exitDx=0;exitDy=0;entryX=0.5;entryY=1;entryDx=0;entryDy=0;" parent="1" source="PHPO2o-kH9OnLnHtMdVv-3" target="_iZkiCQIXDb09jmAlb5r-8" edge="1">
          <mxGeometry width="50" height="50" relative="1" as="geometry">
            <mxPoint x="2880" y="270" as="sourcePoint" />
            <mxPoint x="2930" y="220" as="targetPoint" />
          </mxGeometry>
        </mxCell>
        <mxCell id="_iZkiCQIXDb09jmAlb5r-12" value="" style="group" parent="1" vertex="1" connectable="0">
          <mxGeometry x="2840" y="238.75" width="119.48000000000002" height="80.5" as="geometry" />
        </mxCell>
        <mxCell id="PHPO2o-kH9OnLnHtMdVv-3" value="" style="rounded=0;whiteSpace=wrap;html=1;strokeColor=#7D7D7D;" parent="_iZkiCQIXDb09jmAlb5r-12" vertex="1">
          <mxGeometry width="119.48" height="80.5" as="geometry" />
        </mxCell>
        <mxCell id="PHPO2o-kH9OnLnHtMdVv-1" value="" style="shape=image;verticalLabelPosition=bottom;labelBackgroundColor=default;verticalAlign=top;aspect=fixed;imageAspect=0;image=https://hub.meltano.com/assets/logos/extractors/kafka.png;" parent="_iZkiCQIXDb09jmAlb5r-12" vertex="1">
          <mxGeometry x="4" y="13.75" width="100.95" height="53" as="geometry" />
        </mxCell>
      </root>
    </mxGraphModel>
  </diagram>
</mxfile>
